<?xml version="1.0" ?><svg viewBox="0 0 64 64" xmlns="http://www.w3.org/2000/svg"><title/><g data-name="03-Difficulty Breathing" id="_03-Difficulty_Breathing"><circle cx="6.5" cy="9.5" r="1.5" style="fill:#34c1ad"/><circle cx="6.5" cy="28.5" r="1.5" style="fill:#34c1ad"/><path d="M19,12h9c5,0,6,4,6,7V36l1.9,1.27A2.451,2.451,0,0,1,37,39.32v.21A2.475,2.475,0,0,1,34.53,42a2.242,2.242,0,0,1-.52-.06,2.44,2.44,0,0,1-1.69-1.31L32,40l-.32.63a2.44,2.44,0,0,1-1.69,1.31,2.242,2.242,0,0,1-.52.06A2.458,2.458,0,0,1,27,39.53v-.21a2.451,2.451,0,0,1,1.1-2.05L30,36V21.42c0-1.48-.52-2.42-2-2.42H21V15H19.44a1.438,1.438,0,0,1-1.08-2.39c.15-.17.35-.4.56-.67Z" style="fill:#ff5d54"/><circle cx="23.5" cy="46.5" r="1.5" style="fill:#34c1ad"/><circle cx="40.5" cy="50.5" r="1.5" style="fill:#34c1ad"/><path d="M20.24,37.25C21.79,35.18,24.48,32,26.33,32A3.946,3.946,0,0,1,30,34v2l-1.9,1.27A2.451,2.451,0,0,0,27,39.32v.21A2.458,2.458,0,0,0,29.47,42a2.242,2.242,0,0,0,.52-.06L30,42v7.05a3.907,3.907,0,0,1-1.45,3.08l-4.06,3.16a3.292,3.292,0,0,1-2.02.71,3.491,3.491,0,0,1-3.2-2.32A4.131,4.131,0,0,1,19,52.21V41.05A6.311,6.311,0,0,1,20.24,37.25ZM23.5,48A1.5,1.5,0,1,0,22,46.5,1.5,1.5,0,0,0,23.5,48Z" style="fill:#e7544c"/><path d="M39,50.5A1.5,1.5,0,1,0,40.5,49,1.5,1.5,0,0,0,39,50.5Zm6-9.45V52.21a4.131,4.131,0,0,1-.27,1.47A3.491,3.491,0,0,1,41.53,56a3.292,3.292,0,0,1-2.02-.71l-4.06-3.16A3.907,3.907,0,0,1,34,49.05V42l.01-.06a2.242,2.242,0,0,0,.52.06A2.475,2.475,0,0,0,37,39.53v-.21a2.451,2.451,0,0,0-1.1-2.05L34,36V34a3.946,3.946,0,0,1,3.67-2c1.85,0,4.54,3.18,6.09,5.25A6.311,6.311,0,0,1,45,41.05Z" style="fill:#e7544c"/><path d="M56,41l-1.09-4.9a7,7,0,0,0-4.96-5.22L37,27V19c3-2,4-4,4-6V9a8,8,0,0,0-8-8H28a7.158,7.158,0,0,0-5.94,3.07A5.489,5.489,0,0,0,21,7a8.846,8.846,0,0,1-2.08,4.94L19,12h9c5,0,6,4,6,7V34a3.946,3.946,0,0,1,3.67-2c1.85,0,4.54,3.18,6.09,5.25A6.311,6.311,0,0,1,45,41.05V52.21a4.131,4.131,0,0,1-.27,1.47A3.491,3.491,0,0,1,41.53,56a3.292,3.292,0,0,1-2.02-.71l-4.06-3.16A3.907,3.907,0,0,1,34,49.05V42l.01-.06a2.44,2.44,0,0,1-1.69-1.31L32,40l-.32.63a2.44,2.44,0,0,1-1.69,1.31L30,42v7.05a3.907,3.907,0,0,1-1.45,3.08l-4.06,3.16a3.292,3.292,0,0,1-2.02.71,3.491,3.491,0,0,1-3.2-2.32A4.131,4.131,0,0,1,19,52.21V41.05a6.311,6.311,0,0,1,1.24-3.8C21.79,35.18,24.48,32,26.33,32A3.946,3.946,0,0,1,30,34V21.42c0-1.48-.52-2.42-2-2.42H21v1a2.006,2.006,0,0,0,2,2h4v5L14.05,30.88A7,7,0,0,0,9.09,36.1L8,41,4,63H14l2-10,.69,1.71L20,63H44l3.31-8.29L48,53l2,10H60Z" style="fill:#f2c4b2"/><path d="M28.55,52.13l-4.06,3.16a3.292,3.292,0,0,1-2.02.71,3.491,3.491,0,0,1-3.2-2.32A4.131,4.131,0,0,1,19,52.21v3a4.131,4.131,0,0,0,.27,1.47A3.491,3.491,0,0,0,22.47,59a3.292,3.292,0,0,0,2.02-.71l4.06-3.16A3.907,3.907,0,0,0,30,52.05v-3A3.907,3.907,0,0,1,28.55,52.13Z" style="fill:#f2b59d"/><path d="M41.53,56a3.292,3.292,0,0,1-2.02-.71l-4.06-3.16A3.907,3.907,0,0,1,34,49.05v3a3.907,3.907,0,0,0,1.45,3.08l4.06,3.16a3.292,3.292,0,0,0,2.02.71,3.491,3.491,0,0,0,3.2-2.32A4.131,4.131,0,0,0,45,55.21v-3a4.131,4.131,0,0,1-.27,1.47A3.491,3.491,0,0,1,41.53,56Z" style="fill:#f2b59d"/><circle cx="30" cy="17" r="1" style="fill:#34c1ad"/><circle cx="27" cy="15" r="1" style="fill:#34c1ad"/><circle cx="3" cy="24" r="1" style="fill:#21abab"/><circle cx="6" cy="19" r="1" style="fill:#21abab"/><circle cx="3" cy="14" r="1" style="fill:#21abab"/><path d="M16,17a1,1,0,0,1-.554-.168l-6-4a1,1,0,0,1,1.11-1.664l6,4A1,1,0,0,1,16,17Z" style="fill:#21abab"/><path d="M10,27a1,1,0,0,1-.556-1.832l6-4a1,1,0,1,1,1.11,1.664l-6,4A1,1,0,0,1,10,27Z" style="fill:#21abab"/><path d="M16,20H9a1,1,0,0,1,0-2h7a1,1,0,0,1,0,2Z" style="fill:#21abab"/><path d="M25.874,49.9l-3.266,2.612A2.22,2.22,0,0,1,19,50.779V52.21a4.131,4.131,0,0,0,.27,1.47A3.491,3.491,0,0,0,22.47,56a3.292,3.292,0,0,0,2.02-.71l4.06-3.16A3.907,3.907,0,0,0,30,49.05V42l-.01-.06a2.242,2.242,0,0,1-.52.06A2.458,2.458,0,0,1,27,39.53v8.028A3,3,0,0,1,25.874,49.9Z" style="fill:#c74841"/><path d="M42.779,53a2.219,2.219,0,0,1-1.387-.487l-.67-.535a1.458,1.458,0,0,1-1.711-1.369l-.885-.708A3,3,0,0,1,37,47.558V39.53A2.475,2.475,0,0,1,34.53,42a2.242,2.242,0,0,1-.52-.06L34,42v7.05a3.907,3.907,0,0,0,1.45,3.08l4.06,3.16a3.292,3.292,0,0,0,2.02.71,3.491,3.491,0,0,0,3.2-2.32A4.131,4.131,0,0,0,45,52.21V50.779A2.221,2.221,0,0,1,42.779,53Z" style="fill:#c74841"/><circle cx="40" cy="39" r="1" style="fill:#34c1ad"/><circle cx="41" cy="44" r="1" style="fill:#34c1ad"/><circle cx="22" cy="42" r="1" style="fill:#34c1ad"/><circle cx="24" cy="38" r="1" style="fill:#34c1ad"/><circle cx="24" cy="51" r="1" style="fill:#34c1ad"/><circle cx="37" cy="46" r="1" style="fill:#34c1ad"/><circle cx="42.5" cy="46.5" r="0.5" style="fill:#c74841"/><circle cx="20.5" cy="46.5" r="0.5" style="fill:#c74841"/><circle cx="38.5" cy="41.5" r="0.5" style="fill:#c74841"/><circle cx="25.5" cy="41.5" r="0.5" style="fill:#c74841"/><circle cx="26.5" cy="35.5" r="0.5" style="fill:#c74841"/><circle cx="41.5" cy="36.5" r="0.5" style="fill:#c74841"/><circle cx="32.5" cy="25.5" r="0.5" style="fill:#c74841"/><circle cx="31.5" cy="29.5" r="0.5" style="fill:#34c1ad"/><circle cx="31.5" cy="20.5" r="0.5" style="fill:#34c1ad"/><circle cx="25.5" cy="17.5" r="0.5" style="fill:#c74841"/><circle cx="23.5" cy="14.5" r="0.5" style="fill:#34c1ad"/><circle cx="36.5" cy="35.5" r="0.5" style="fill:#c74841"/><path d="M11.757,56.97A4,4,0,0,1,7.877,60H4.545L4,63H14l2-10V40Z" style="fill:#f2b59d"/><path d="M56.123,60a4,4,0,0,1-3.88-3.03L48,40V53l2,10H60l-.545-3Z" style="fill:#f2b59d"/><circle cx="40.5" cy="50.5" r="1" style="fill:#13969d"/><circle cx="23.5" cy="46.5" r="1" style="fill:#13969d"/><rect height="5" style="fill:#f2b59d" width="3" x="27" y="22"/><polygon points="37 19 34 21 34 27 37 27 37 19" style="fill:#f2b59d"/></g></svg>