<svg height="457pt" viewBox="0 0 457.10195 457" width="457pt" xmlns="http://www.w3.org/2000/svg"><path d="m321.546875 284.257812c-11.035156-11.039062-28.960937-11.039062-40 0l-21.488281 21.285157h-.003906l-.023438.015625c-8.277344 5.269531-39.019531-6.613282-70.410156-38.027344-31.410156-31.398438-43.3125-62.167969-38.027344-70.410156l.324219-.503906c.042969-.0625.105469-.117188.148437-.183594l20.820313-20.820313c5.347656-5.347656 8.285156-12.445312 8.285156-20.007812s-2.9375-14.660157-8.285156-20l-85.527344-85.527344c-11.007813-11.027344-28.960937-11.054687-39.988281 0l-32.457032 32.453125c-20.570312 20.5625-19.839843 58.859375 2.054688 107.832031 20.679688 46.257813 58 97.660157 105.089844 144.742188 47.078125 47.078125 98.480468 84.402343 144.738281 105.078125 25.289063 11.304687 47.726563 16.964844 66.351563 16.964844 17.4375 0 31.523437-4.964844 41.472656-14.910157l32.453125-32.457031c11.027343-11.023438 11.027343-28.960938 0-39.988281zm-261.25-221.25c3.886719-3.894531 10.234375-3.894531 14.136719 0l85.527344 85.535157c1.890624 1.882812 2.925781 4.390625 2.925781 7.0625 0 2.667969-1.035157 5.175781-2.925781 7.070312l-16.324219 16.320313-99.667969-99.667969zm301.394531 366.300782c-28.882812 28.859375-126.867187-7.292969-226.714844-107.132813-45.542968-45.542969-81.527343-95.007812-101.3125-139.277343-18.3125-40.953126-20.429687-72.820313-5.820312-87.4375l3.199219-3.203126 102.167969 102.171876c-6.011719 23.109374 16.976562 59.535156 43.480468 86.03125 23.625 23.625 55.167969 44.546874 78.105469 44.546874 2.8125 0 5.496094-.316406 8.019531-.976562l102.078125 102.078125zm32.457032-32.453125-16.324219 16.328125-99.667969-99.667969 16.320312-16.332031c3.894532-3.890625 10.25-3.890625 14.144532 0l85.527344 85.535156c3.890624 3.894531 3.890624 10.242188 0 14.136719zm0 0"/><path d="m403.710938 53.371094c-34.394532-34.390625-80.027344-53.3203128-128.519532-53.3203128-.0625 0-.125 0-.179687 0-5.042969.0078126-9.140625 4.0976568-9.132813 9.1523438.007813 5.042969 4.097656 9.132813 9.144532 9.132813h.167968c43.605469 0 84.652344 17.035156 115.589844 47.964843 30.972656 30.980469 48.035156 72.117188 48.035156 115.832031 0 5.050782 4.089844 9.140626 9.144532 9.140626 5.050781 0 9.140624-4.089844 9.140624-9.140626 0-48.601562-18.964843-94.332031-53.390624-128.761718zm0 0"/><path d="m275.058594 79.871094c56.355468 0 102.203125 45.847656 102.203125 102.199218 0 5.050782 4.089843 9.140626 9.144531 9.140626s9.140625-4.089844 9.140625-9.140626c0-66.4375-54.050781-120.484374-120.488281-120.484374-5.054688 0-9.144532 4.089843-9.144532 9.144531 0 5.050781 4.089844 9.140625 9.144532 9.140625zm0 0"/><path d="m275.058594 141.445312c22.402344 0 40.625 18.222657 40.625 40.625 0 5.050782 4.089844 9.140626 9.140625 9.140626 5.054687 0 9.144531-4.089844 9.144531-9.140626 0-32.484374-26.429688-58.914062-58.910156-58.914062-5.054688 0-9.144532 4.089844-9.144532 9.144531 0 5.054688 4.089844 9.144531 9.144532 9.144531zm0 0"/></svg>