<?xml version="1.0"?>
<svg xmlns="http://www.w3.org/2000/svg" viewBox="0 0 64 64" width="512" height="512" fill="#82c519"><g id="virus-cell-covid19-corona-coronavirus"><path d="M32,62a4,4,0,0,1-2.423-7.186l-.3-5.018a17.527,17.527,0,0,1-3.825-1.029l-2.767,4.2a4,4,0,1,1-4.19-2.421l2.255-4.494a17.912,17.912,0,0,1-2.807-2.807L13.453,45.5a4,4,0,1,1-2.421-4.19l4.2-2.766A17.527,17.527,0,0,1,14.2,34.719l-5.018-.3a4,4,0,1,1,0-4.846l5.018-.3a17.527,17.527,0,0,1,1.029-3.825l-4.2-2.767A4,4,0,1,1,13.453,18.5l4.494,2.254a17.912,17.912,0,0,1,2.807-2.807L18.5,13.453a4,4,0,1,1,4.19-2.421l2.767,4.2A17.43,17.43,0,0,1,29.281,14.2l.3-5.018a4,4,0,1,1,4.846,0l.3,5.018a17.43,17.43,0,0,1,3.825,1.029l2.767-4.2a4,4,0,1,1,4.19,2.421l-2.255,4.494a17.912,17.912,0,0,1,2.807,2.807L50.547,18.5a4,4,0,1,1,2.421,4.189l-4.2,2.767A17.527,17.527,0,0,1,49.8,29.281l5.018.3a4,4,0,1,1,0,4.846l-5.018.3a17.527,17.527,0,0,1-1.029,3.825l4.2,2.766a4,4,0,1,1-2.421,4.19l-4.494-2.254a17.912,17.912,0,0,1-2.807,2.807L45.5,50.547a4,4,0,1,1-4.19,2.421l-2.767-4.2A17.527,17.527,0,0,1,34.719,49.8l-.3,5.018A4,4,0,0,1,32,62ZM25.081,46.52a1,1,0,0,1,.414.09,15.543,15.543,0,0,0,4.84,1.306,1,1,0,0,1,.894.935l.379,6.43a1,1,0,0,1-.536.946,2,2,0,1,0,1.856,0,1,1,0,0,1-.536-.946l.379-6.43a1,1,0,0,1,.894-.935,15.543,15.543,0,0,0,4.84-1.306,1,1,0,0,1,1.25.36l3.55,5.39a1,1,0,0,1,0,1.094,1.975,1.975,0,0,0-.041,2.068,2.008,2.008,0,0,0,3.669-.494,2.006,2.006,0,0,0-2.021-2.509,1,1,0,0,1-.939-.551l-2.89-5.76a1,1,0,0,1,.307-1.258,15.891,15.891,0,0,0,3.556-3.556,1,1,0,0,1,1.258-.308l5.76,2.891a1,1,0,0,1,.551.939A2,2,0,0,0,56.244,46a2.007,2.007,0,0,0-.726-2.735,1.973,1.973,0,0,0-2.064.044,1,1,0,0,1-1.094,0l-5.39-3.55a1,1,0,0,1-.361-1.251,15.5,15.5,0,0,0,1.307-4.838,1,1,0,0,1,.936-.894l6.429-.38a1,1,0,0,1,.946.536,2,2,0,1,0,0-1.856,1,1,0,0,1-.946.536l-6.429-.38a1,1,0,0,1-.936-.894A15.5,15.5,0,0,0,46.609,25.5a1,1,0,0,1,.361-1.251l5.39-3.55a1,1,0,0,1,1.094,0,1.978,1.978,0,0,0,2.067.042,2.007,2.007,0,0,0-.493-3.669,2,2,0,0,0-2.509,2.02,1,1,0,0,1-.551.939l-5.76,2.891a1,1,0,0,1-1.258-.308,15.891,15.891,0,0,0-3.556-3.556,1,1,0,0,1-.307-1.258l2.89-5.76a1,1,0,0,1,.939-.551A2,2,0,0,0,46,7.757a2.006,2.006,0,0,0-2.735.725,1.973,1.973,0,0,0,.043,2.064,1,1,0,0,1,0,1.094l-3.55,5.39a1,1,0,0,1-1.25.36,15.5,15.5,0,0,0-4.839-1.306,1,1,0,0,1-.895-.935l-.379-6.43a1,1,0,0,1,.536-.946,2,2,0,1,0-1.856,0,1,1,0,0,1,.536.946l-.379,6.43a1,1,0,0,1-.895.935A15.5,15.5,0,0,0,25.5,17.39a1,1,0,0,1-1.25-.36L20.7,11.64a1,1,0,0,1,0-1.094,1.975,1.975,0,0,0,.041-2.068,2.007,2.007,0,0,0-3.668.493,2,2,0,0,0,2.02,2.51,1,1,0,0,1,.939.551l2.89,5.76a1,1,0,0,1-.307,1.258,15.891,15.891,0,0,0-3.556,3.556,1,1,0,0,1-1.258.308l-5.76-2.891a1,1,0,0,1-.551-.939A2,2,0,0,0,7.756,18a2.007,2.007,0,0,0,.726,2.735,1.977,1.977,0,0,0,2.064-.044,1,1,0,0,1,1.094,0l5.39,3.55a1,1,0,0,1,.361,1.251,15.5,15.5,0,0,0-1.307,4.838,1,1,0,0,1-.936.894l-6.429.38a.994.994,0,0,1-.946-.536,2,2,0,1,0,0,1.856,1,1,0,0,1,.946-.536l6.429.38a1,1,0,0,1,.936.894A15.5,15.5,0,0,0,17.391,38.5a1,1,0,0,1-.361,1.251l-5.39,3.55a1,1,0,0,1-1.094,0,1.972,1.972,0,0,0-2.067-.042,2.007,2.007,0,0,0,.493,3.669,2,2,0,0,0,2.509-2.02,1,1,0,0,1,.551-.939l5.76-2.891a1,1,0,0,1,1.258.308,15.891,15.891,0,0,0,3.556,3.556,1,1,0,0,1,.307,1.258l-2.89,5.76a1,1,0,0,1-.939.551,2.005,2.005,0,0,0-2.021,2.509,2.008,2.008,0,0,0,3.671.49,1.973,1.973,0,0,0-.043-2.064,1,1,0,0,1,0-1.094l3.55-5.39A1,1,0,0,1,25.081,46.52Z"/><path d="M32,27a4,4,0,1,1,4-4A4,4,0,0,1,32,27Zm0-6a2,2,0,1,0,2,2A2,2,0,0,0,32,21Z"/><path d="M27,41a4,4,0,1,1,4-4A4,4,0,0,1,27,41Zm0-6a2,2,0,1,0,2,2A2,2,0,0,0,27,35Z"/><path d="M40,37a5,5,0,1,1,5-5A5.006,5.006,0,0,1,40,37Zm0-8a3,3,0,1,0,3,3A3,3,0,0,0,40,29Z"/><path d="M23,32a3,3,0,1,1,3-3A3,3,0,0,1,23,32Zm0-4a1,1,0,1,0,1,1A1,1,0,0,0,23,28Z"/><path d="M36,44a3,3,0,1,1,3-3A3,3,0,0,1,36,44Zm0-4a1,1,0,1,0,1,1A1,1,0,0,0,36,40Z"/></g></svg>
