<?xml version="1.0" encoding="iso-8859-1"?>
<!-- Generator: Adobe Illustrator 19.0.0, SVG Export Plug-In . SVG Version: 6.00 Build 0)  -->
<svg version="1.1" id="Capa_1" xmlns="http://www.w3.org/2000/svg" xmlns:xlink="http://www.w3.org/1999/xlink" fill="#3639ae" x="0px" y="0px"
	 viewBox="0 0 512.001 512.001" style="enable-background:new 0 0 512.001 512.001;" xml:space="preserve">
<g>
	<g>
		<path d="M511.576,241.023c-3.532-61.957-29.88-120.641-74.187-165.241c-44.312-44.606-102.82-71.33-164.746-75.248
			c-37.648-2.383-74.329,3.222-109.027,16.655C130.262,30.1,100.464,49.528,75.045,74.932
			c-25.42,25.405-44.864,55.192-57.797,88.539c-13.454,34.69-19.079,71.367-16.72,109.011
			C4.4,334.267,30.989,392.696,75.394,437.001c44.401,44.301,102.89,70.764,164.689,74.514c5.345,0.324,10.671,0.486,15.983,0.486
			c26.948,0,53.428-4.168,78.917-12.438c20.722-6.723,37.29-22.345,45.457-42.861c7.943-19.952,7.152-42.053-2.063-61.261
			c0.015-0.015,0.03-0.028,0.045-0.042l21.837-21.838c5.704-5.704,8.369-13.562,7.312-21.558
			c-1.058-7.997-5.674-14.892-12.664-18.916l-73.578-42.363c-10.057-5.791-22.811-4.104-31.019,4.103l-19.038,19.039
			c-3.106,3.107-8.041,3.356-11.478,0.582c-11.183-9.027-22.198-18.95-32.74-29.493c-10.541-10.541-20.464-21.557-29.493-32.741
			c-2.774-3.437-2.524-8.371,0.581-11.477l19.04-19.04c8.206-8.206,9.893-20.961,4.103-31.018l-42.363-73.578
			c-4.024-6.99-10.919-11.606-18.916-12.664c-7.996-1.06-15.854,1.607-21.559,7.311l-21.837,21.838
			c-16.059,16.057-16.508,44.973-1.266,81.422c14.358,34.336,41.113,72.093,75.338,106.316
			c34.224,34.224,71.981,60.979,106.316,75.338c17.727,7.413,33.669,11.114,47.22,11.114c8.054,0,15.262-1.308,21.496-3.922
			c6.56,14.973,6.91,31.927,0.79,47.299c-6.512,16.356-19.688,28.801-36.15,34.141c-28.72,9.317-58.784,13.103-89.363,11.247
			c-58.145-3.528-113.193-28.445-155.004-70.16c-41.813-41.719-66.847-96.708-70.49-154.841
			c-2.223-35.461,3.071-69.998,15.734-102.649c12.173-31.389,30.481-59.432,54.415-83.353c23.934-23.92,51.987-42.21,83.383-54.364
			c32.658-12.644,67.2-17.915,102.665-15.674c58.262,3.687,113.327,28.849,155.053,70.85c41.721,41.998,66.528,97.23,69.852,155.524
			c2.412,42.314-6.231,84.474-24.994,121.919c-1.855,3.703-0.358,8.209,3.346,10.065c3.705,1.858,8.209,0.358,10.064-3.345
			C504.952,330.729,514.136,285.951,511.576,241.023z M367.817,384.792c-11.305,11.305-35.009,10.588-65.03-1.967
			c-32.576-13.623-68.622-39.23-101.496-72.106c-32.876-32.875-58.483-68.921-72.106-101.497
			c-12.555-30.022-13.272-53.724-1.967-65.028l9.594-9.595l2.837,4.928c1.388,2.411,3.911,3.759,6.507,3.759
			c1.27,0,2.557-0.323,3.735-1.001c3.59-2.067,4.824-6.652,2.758-10.242l-4.853-8.429l1.259-1.259
			c2.034-2.035,4.727-3.141,7.551-3.141c0.475,0,0.953,0.031,1.434,0.095c3.332,0.441,6.206,2.364,7.883,5.278l42.363,73.578
			c2.414,4.191,1.711,9.507-1.71,12.927l-5.339,5.339l-31.886-55.382c-2.067-3.59-6.653-4.824-10.242-2.757
			c-3.59,2.066-4.824,6.652-2.758,10.242l33.901,58.882l-2.716,2.716c-8.541,8.542-9.248,22.086-1.646,31.505
			c9.362,11.597,19.644,23.011,30.559,33.925c10.917,10.917,22.332,21.199,33.925,30.558c9.418,7.604,22.962,6.896,31.505-1.646
			l1.699-1.699l13.018,7.43c1.173,0.669,2.45,0.988,3.711,0.988c2.605,0,5.137-1.359,6.521-3.784
			c2.054-3.597,0.802-8.178-2.796-10.231l-9.458-5.398l6.345-6.345c3.42-3.42,8.736-4.121,12.927-1.71l73.578,42.363
			c2.914,1.677,4.837,4.55,5.278,7.883c0.44,3.333-0.67,6.607-3.048,8.985l-1.965,1.965l-55.822-31.859
			c-3.598-2.053-8.179-0.802-10.231,2.796c-2.054,3.598-0.802,8.178,2.796,10.231l52.262,29.827L367.817,384.792z"/>
	</g>
</g>
<g>
</g>
<g>
</g>
<g>
</g>
<g>
</g>
<g>
</g>
<g>
</g>
<g>
</g>
<g>
</g>
<g>
</g>
<g>
</g>
<g>
</g>
<g>
</g>
<g>
</g>
<g>
</g>
<g>
</g>
</svg>
